# xmcd
#
# Track frame offsets: 
#        150
#        13398
#        28371
#        43419
#        55242
#        69690
#        81438
#        92136
#        107634
#        121857
#
# Disc length: 1888 seconds
#
# Revision: 0
# Processed by: cddbd v1.5.2PL0 Copyright (c) Steve Scherf et al.
# Submitted via: ExactAudioCopyFreeDBPlugin 1.0
#
DISCID=91075e0a
DTITLE=Smiling Jack Smith and David Gwynn - Now That Truth Was Gone
DYEAR=2010
DGENRE=Blues
TTITLE0=Free to Feel the Blues
TTITLE1=Oh Mama
TTITLE2=The Hawk
TTITLE3=I Got the Blues (But That's Alright)
TTITLE4=King of the World
TTITLE5=Myspace Blues
TTITLE6=Mano a mano
TTITLE7=I'm Goin' Fishin'
TTITLE8=Backscratcher
TTITLE9=Now That Truth Was Gone
EXTD=
EXTT0=
EXTT1=
EXTT2=
EXTT3=
EXTT4=
EXTT5=
EXTT6=
EXTT7=
EXTT8=
EXTT9=
PLAYORDER=
